<!-- Created with Inkscape (http://www.inkscape.org/) -->
<svg id="svg3372" xmlns:rdf="http://www.w3.org/1999/02/22-rdf-syntax-ns#" xmlns="http://www.w3.org/2000/svg" version="1.1" xmlns:cc="http://creativecommons.org/ns#" xmlns:dc="http://purl.org/dc/elements/1.1/" viewBox="0 0 2000 2000">
 <g id="layer1" transform="translate(0 947.64)">
  <path id="path3405" d="m366.88 1007.7c-0.44-0.8-20.5-56.6-44.59-124.09l-43.78-122.72 329.99-350.55c181.49-192.81 330.16-351.06 330.38-351.67 0.22-0.616-148.29-158.89-330.01-351.72l-330.4-350.61 44.236-123.72 44.236-123.72h725.68c492.06 0 725.82 0.4624 726.13 1.4362 0.2485 0.7898-45.781 56.866-102.29 124.61l-102.74 123.18-498.14 0.35387c-366.51 0.26038-498.14 0.77049-498.14 1.9305 0 0.86713 110.52 118.76 245.6 261.98l245.6 260.41 0.3698 173.46c0.2034 95.402 0.067 174.78-0.3048 176.4-0.3712 1.6198-112.55 120.01-249.29 263.1-136.74 143.08-248.62 260.72-248.62 261.42 0 0.74782 205.2 1.2666 501 1.2666h501l102.86 123.35c56.57 67.84 102.86 124.07 102.86 124.97 0 2.1202-1450.4 3.0687-1451.6 0.9491zm-448.67-1688.3c0-1.8774 0.88632-2.8161 2.6588-2.8161 1.7724 0 2.6587 0.93872 2.6587 2.8161s-0.88631 2.8161-2.6587 2.8161c-1.7725 0-2.6588-0.9387-2.6588-2.8161z" style="fill:#aee9cc"/>
  <path id="path3403" d="m367.64 1005.1c-2.0407-4.039-85.512-238.48-86.24-242.22-0.55871-2.868 44.492-51.136 329.22-352.73 181.42-192.18 329.85-350.36 329.84-351.52-0.02-1.16-148.37-159.56-329.67-352.01-181.31-192.45-329.65-350.6-329.66-351.45-0.0143-1.3465 80.679-228.05 85.689-240.75l1.9008-4.8187h723.9c502.05 0 723.9 0.4505 723.9 1.47 0 1.4442-199.1 241.15-203.15 244.59-1.6522 1.401-103.74 1.7601-500.43 1.7601-437.52 0-498.3 0.25238-497.92 2.0676 0.23643 1.1372 110.95 119.57 246.03 263.19l245.6 261.12v175.61 175.61l-55.407 57.901c-292.47 305.66-442.46 463.11-442.82 464.85-0.37866 1.8344 59.181 2.082 500.81 2.082h501.24l3.96 3.8722c8.3655 8.18 201.99 241.65 201.33 242.77-0.379 0.6497-326.06 1.1812-723.73 1.1812-700.7 0-723.08-0.08-724.35-2.5906z" style="fill:#8bddb5"/>
  <path id="path3401" d="m367.66 1003.1c-0.62228-1.7425-5.7518-16.158-11.399-32.033-5.6472-15.876-24.565-68.956-42.04-117.96-17.475-49-31.772-90.046-31.772-91.213 0-1.1676 148.36-159.5 329.68-351.85 196.88-208.86 329.68-350.78 329.68-352.3 0-1.5313-132.6-142.99-329.68-351.71-181.32-192.03-329.68-349.99-329.68-351.02 0-1.3287 74.182-210.22 85.78-241.55 0.86719-2.3426 36.576-2.4642 723.94-2.4642 397.66 0 723.03 0.3333 723.03 0.7407s-45.27 55.058-100.6 121.45c-55.33 66.388-100.84 121.02-101.14 121.41-0.2978 0.38723-225.26 1.0208-499.92 1.4081-478.09 0.67403-499.4 0.81122-499.83 3.2191-0.32229 1.7724 72.184 79.539 245.56 263.38l246.02 260.86 0.06 175.72 0.06 175.72-53.526 55.838c-94.289 98.362-390.26 407.92-418.96 438.19-15.777 16.642-27.349 29.916-26.841 30.788 0.6417 1.0997 142.45 1.5321 502.5 1.5321 475.8 0 501.75 0.12673 504.33 2.4641 4.1128 3.7191 200.96 240.26 200.96 241.48 0 0.5837-325.14 1.0611-722.54 1.0611h-722.54l-1.1314-3.1681z" style="fill:#69e1a6"/>
  <path id="path3399" d="m368.23 1003.8c-4.24-11.37-84.96-238.22-85.48-240.21-0.75-2.87-2.68-0.8 417.07-446.29l243.85-258.8 80.23 84.9c44.134 46.697 80.86 86.079 81.613 87.515 1.1672 2.2262-0.5586 4.6159-11.714 16.222-170.87 177.78-488.27 510.78-487.92 511.91 0.31582 1.0054 11.422 1.6349 33.266 1.8858 25.021 0.28738 32.791 0.79048 32.791 2.1232 0 0.96059-51.305 56.075-114.01 122.48l-114.01 120.73h-37.394c-34.377 0-37.468-0.1988-38.312-2.4641zm-66.73-1626.7c-10.11-10.881-18.555-20.586-18.765-21.566-0.32472-1.5129 85.152-242.52 86.532-243.98 0.26576-0.2814 325.82-0.3527 723.45-0.1583l722.97 0.3533-101.62 121.8-101.62 121.8-498.87 0.35387c-454.74 0.32257-498.94 0.55206-499.68 2.5946-0.57079 1.5754 3.9813 7.3298 15.33 19.379 8.878 9.4262 16.142 17.605 16.142 18.174 0 0.56964-73.234 1.0357-162.74 1.0357h-162.74l-18.383-19.783z" style="fill:#66cc9a"/>
  <path id="path3397" d="m372.18 1005.1c-2.1765-0.3685-5.2817-7.9042-17.118-41.542-7.9528-22.601-27.019-76.259-42.37-119.24s-28.222-79.322-28.603-80.757c-0.5337-2.0096 72.04-79.793 315.55-338.2 173.94-184.56 322.39-342.42 329.89-350.78l13.639-15.201 81.078 85.869c44.593 47.228 81.078 86.617 81.078 87.53 0 0.91327-8.4613 10.103-18.803 20.421-33.317 33.242-481.68 502.79-482.16 504.94-0.25469 1.1429 0.34357 2.6196 1.3294 3.2814 0.98583 0.66165 16.149 1.2129 33.696 1.2247l31.904 0.0211-114.32 120.98-114.32 120.98-33.898 0.4732c-18.644 0.2602-35.095 0.2707-36.557 0.022zm-70.33-1629.2c-13.559-14.389-18.275-20.268-17.794-22.177 1.2317-4.8869 85.135-239.15 86.033-240.21 0.49284-0.5816 325.26-0.8984 721.7-0.7041l720.8 0.3533-100.39 120.39-100.39 120.39-500.06 0.70402c-410.09 0.57737-500.16 1.0352-500.64 2.5447-0.3187 1.0124 6.6605 9.5974 15.509 19.078 8.8485 9.4804 16.088 17.681 16.088 18.224 0 0.54293-72.541 0.98715-161.2 0.98715h-161.2l-18.449-19.579z" style="fill:#5cc792"/>
  <path id="path3395" d="m431.78 941.87c33.025-34.64 84.894-89.132 115.27-121.09l55.22-58.112h33.179 33.179l-114.32 121.09-114.32 121.09h-34.125-34.125l60.045-62.981zm565.5-766.79c-44.436-46.621-80.777-85.326-80.758-86.011 0.05-1.8329 24.206-27.62 25.873-27.62 0.7814 0 37.91 38.665 82.507 85.922l81.087 85.922-12.762 13.347c-7.0194 7.3408-13.3 13.315-13.958 13.277-0.6581-0.038-37.553-38.215-81.988-84.836zm-693.77-797.52c-8.6587-9.0584-15.743-16.979-15.743-17.601 0-0.62203 72.533-1.0414 161.18-0.932l161.18 0.19895 15.893 17.402 15.893 17.402h-161.33-161.33l-15.743-16.47z" style="fill:#59c08d"/>
  <path id="path3393" d="m1006.1 181.12c-40.84-42.8-77.51-81.179-81.48-85.287l-7.221-7.468 11.782-12.753c6.4801-7.0143 12.423-12.753 13.207-12.753 0.7839 0 37.612 38.333 81.841 85.185l80.415 85.185-12.134 12.853-12.134 12.852-74.268-77.817z" style="fill:#4faa7d"/>
 </g>
</svg>
